<mxfile host="app.diagrams.net" modified="2022-03-14T22:47:32.896Z" agent="5.0 (Windows NT 10.0; Win64; x64) AppleWebKit/537.36 (KHTML, like Gecko) Chrome/99.0.4844.51 Safari/537.36" etag="gPpomb3nAy1BLdF8AAcs" version="17.1.2" type="github" pages="3">
  <diagram id="gs9AMT8mG3xckfrs75OB" name="Работа банка">
    <mxGraphModel dx="700" dy="784" grid="1" gridSize="10" guides="1" tooltips="1" connect="1" arrows="1" fold="1" page="1" pageScale="1" pageWidth="827" pageHeight="1169" math="0" shadow="0">
      <root>
        <mxCell id="0" />
        <mxCell id="1" parent="0" />
        <mxCell id="XVK0wRfOs3caaHc1ph6c-1" value="Пополнить счёт" style="ellipse;whiteSpace=wrap;html=1;" parent="1" vertex="1">
          <mxGeometry x="300" y="150" width="120" height="80" as="geometry" />
        </mxCell>
        <mxCell id="XVK0wRfOs3caaHc1ph6c-2" value="Открыть счёт" style="ellipse;whiteSpace=wrap;html=1;" parent="1" vertex="1">
          <mxGeometry x="100" y="110" width="120" height="80" as="geometry" />
        </mxCell>
        <mxCell id="XVK0wRfOs3caaHc1ph6c-3" value="снять деньги со счёта" style="ellipse;whiteSpace=wrap;html=1;" parent="1" vertex="1">
          <mxGeometry x="300" y="440" width="120" height="80" as="geometry" />
        </mxCell>
        <mxCell id="XVK0wRfOs3caaHc1ph6c-4" value="закрыть счёт" style="ellipse;whiteSpace=wrap;html=1;" parent="1" vertex="1">
          <mxGeometry x="120" y="500" width="120" height="80" as="geometry" />
        </mxCell>
        <mxCell id="XVK0wRfOs3caaHc1ph6c-5" value="Клиент банка" style="shape=umlActor;verticalLabelPosition=bottom;verticalAlign=top;html=1;outlineConnect=0;" parent="1" vertex="1">
          <mxGeometry x="90" y="310" width="30" height="60" as="geometry" />
        </mxCell>
        <mxCell id="XVK0wRfOs3caaHc1ph6c-8" value="Кассир" style="shape=umlActor;verticalLabelPosition=bottom;verticalAlign=top;html=1;outlineConnect=0;" parent="1" vertex="1">
          <mxGeometry x="320" y="310" width="30" height="60" as="geometry" />
        </mxCell>
        <mxCell id="XVK0wRfOs3caaHc1ph6c-9" value="Операционист" style="shape=umlActor;verticalLabelPosition=bottom;verticalAlign=top;html=1;outlineConnect=0;" parent="1" vertex="1">
          <mxGeometry x="520" y="300" width="30" height="60" as="geometry" />
        </mxCell>
        <mxCell id="XVK0wRfOs3caaHc1ph6c-10" value="" style="endArrow=none;html=1;rounded=0;entryX=0;entryY=0.5;entryDx=0;entryDy=0;" parent="1" target="XVK0wRfOs3caaHc1ph6c-1" edge="1">
          <mxGeometry width="50" height="50" relative="1" as="geometry">
            <mxPoint x="120" y="330" as="sourcePoint" />
            <mxPoint x="170" y="280" as="targetPoint" />
          </mxGeometry>
        </mxCell>
        <mxCell id="XVK0wRfOs3caaHc1ph6c-11" value="" style="endArrow=none;html=1;rounded=0;entryX=0;entryY=0.5;entryDx=0;entryDy=0;" parent="1" target="XVK0wRfOs3caaHc1ph6c-3" edge="1">
          <mxGeometry width="50" height="50" relative="1" as="geometry">
            <mxPoint x="120" y="330" as="sourcePoint" />
            <mxPoint x="280" y="270" as="targetPoint" />
          </mxGeometry>
        </mxCell>
        <mxCell id="XVK0wRfOs3caaHc1ph6c-14" value="" style="endArrow=none;html=1;rounded=0;entryX=0.5;entryY=1;entryDx=0;entryDy=0;" parent="1" target="XVK0wRfOs3caaHc1ph6c-1" edge="1">
          <mxGeometry width="50" height="50" relative="1" as="geometry">
            <mxPoint x="350" y="330" as="sourcePoint" />
            <mxPoint x="425" y="280" as="targetPoint" />
          </mxGeometry>
        </mxCell>
        <mxCell id="XVK0wRfOs3caaHc1ph6c-15" value="" style="endArrow=none;html=1;rounded=0;entryX=1;entryY=0.3333333333333333;entryDx=0;entryDy=0;entryPerimeter=0;exitX=0.5;exitY=0;exitDx=0;exitDy=0;" parent="1" source="XVK0wRfOs3caaHc1ph6c-3" target="XVK0wRfOs3caaHc1ph6c-8" edge="1">
          <mxGeometry width="50" height="50" relative="1" as="geometry">
            <mxPoint x="392.57" y="440" as="sourcePoint" />
            <mxPoint x="419.99640687119296" y="328.284271247462" as="targetPoint" />
          </mxGeometry>
        </mxCell>
        <mxCell id="XVK0wRfOs3caaHc1ph6c-18" value="" style="endArrow=none;html=1;rounded=0;entryX=1;entryY=1;entryDx=0;entryDy=0;" parent="1" target="XVK0wRfOs3caaHc1ph6c-1" edge="1">
          <mxGeometry width="50" height="50" relative="1" as="geometry">
            <mxPoint x="520" y="320" as="sourcePoint" />
            <mxPoint x="470" y="280" as="targetPoint" />
          </mxGeometry>
        </mxCell>
        <mxCell id="XVK0wRfOs3caaHc1ph6c-19" value="" style="endArrow=none;html=1;rounded=0;entryX=0;entryY=0.3333333333333333;entryDx=0;entryDy=0;entryPerimeter=0;exitX=1;exitY=0;exitDx=0;exitDy=0;" parent="1" source="XVK0wRfOs3caaHc1ph6c-3" target="XVK0wRfOs3caaHc1ph6c-9" edge="1">
          <mxGeometry width="50" height="50" relative="1" as="geometry">
            <mxPoint x="397.57" y="451.72" as="sourcePoint" />
            <mxPoint x="379.99640687119296" y="340.00427124746204" as="targetPoint" />
          </mxGeometry>
        </mxCell>
        <mxCell id="XVK0wRfOs3caaHc1ph6c-21" value="Extend" style="html=1;verticalAlign=bottom;endArrow=open;dashed=1;endSize=8;rounded=0;exitX=1;exitY=0.5;exitDx=0;exitDy=0;entryX=0;entryY=0;entryDx=0;entryDy=0;" parent="1" source="XVK0wRfOs3caaHc1ph6c-2" target="XVK0wRfOs3caaHc1ph6c-1" edge="1">
          <mxGeometry relative="1" as="geometry">
            <mxPoint x="260" y="170" as="sourcePoint" />
            <mxPoint x="290" y="170" as="targetPoint" />
          </mxGeometry>
        </mxCell>
        <mxCell id="XVK0wRfOs3caaHc1ph6c-22" value="Extend" style="html=1;verticalAlign=bottom;endArrow=open;dashed=1;endSize=8;rounded=0;exitX=1;exitY=0.5;exitDx=0;exitDy=0;entryX=0;entryY=1;entryDx=0;entryDy=0;" parent="1" target="XVK0wRfOs3caaHc1ph6c-3" edge="1">
          <mxGeometry relative="1" as="geometry">
            <mxPoint x="240" y="536.14" as="sourcePoint" />
            <mxPoint x="337.57359312880703" y="547.8557287525381" as="targetPoint" />
          </mxGeometry>
        </mxCell>
      </root>
    </mxGraphModel>
  </diagram>
  <diagram id="5Rx3PSC64OOWNMII-yyc" name="Работа заправки">
    <mxGraphModel dx="700" dy="784" grid="1" gridSize="10" guides="1" tooltips="1" connect="1" arrows="1" fold="1" page="1" pageScale="1" pageWidth="827" pageHeight="1169" math="0" shadow="0">
      <root>
        <mxCell id="PhnfL3Z2xuEmz42qnART-0" />
        <mxCell id="PhnfL3Z2xuEmz42qnART-1" parent="PhnfL3Z2xuEmz42qnART-0" />
        <mxCell id="PhnfL3Z2xuEmz42qnART-2" value="Помывка авто" style="ellipse;whiteSpace=wrap;html=1;" parent="PhnfL3Z2xuEmz42qnART-1" vertex="1">
          <mxGeometry x="210" y="540" width="120" height="80" as="geometry" />
        </mxCell>
        <mxCell id="PhnfL3Z2xuEmz42qnART-3" value="Покупка топлива" style="ellipse;whiteSpace=wrap;html=1;" parent="PhnfL3Z2xuEmz42qnART-1" vertex="1">
          <mxGeometry x="195" y="210" width="120" height="80" as="geometry" />
        </mxCell>
        <mxCell id="PhnfL3Z2xuEmz42qnART-4" value="Техническое обслуживание и починка" style="ellipse;whiteSpace=wrap;html=1;" parent="PhnfL3Z2xuEmz42qnART-1" vertex="1">
          <mxGeometry x="210" y="420" width="120" height="80" as="geometry" />
        </mxCell>
        <mxCell id="PhnfL3Z2xuEmz42qnART-5" value="Покупка товаров в магазине" style="ellipse;whiteSpace=wrap;html=1;" parent="PhnfL3Z2xuEmz42qnART-1" vertex="1">
          <mxGeometry x="210" y="660" width="120" height="80" as="geometry" />
        </mxCell>
        <mxCell id="PhnfL3Z2xuEmz42qnART-6" value="Клиент&lt;br&gt;" style="shape=umlActor;verticalLabelPosition=bottom;verticalAlign=top;html=1;outlineConnect=0;" parent="PhnfL3Z2xuEmz42qnART-1" vertex="1">
          <mxGeometry x="80" y="480" width="30" height="60" as="geometry" />
        </mxCell>
        <mxCell id="PhnfL3Z2xuEmz42qnART-8" value="Заправщик" style="shape=umlActor;verticalLabelPosition=bottom;verticalAlign=top;html=1;outlineConnect=0;" parent="PhnfL3Z2xuEmz42qnART-1" vertex="1">
          <mxGeometry x="414" y="200" width="30" height="60" as="geometry" />
        </mxCell>
        <mxCell id="DDrTPBUufZIqrLnreXwu-0" value="Ремонтник&lt;br&gt;" style="shape=umlActor;verticalLabelPosition=bottom;verticalAlign=top;html=1;outlineConnect=0;" parent="PhnfL3Z2xuEmz42qnART-1" vertex="1">
          <mxGeometry x="285" y="320" width="30" height="60" as="geometry" />
        </mxCell>
        <mxCell id="DDrTPBUufZIqrLnreXwu-1" value="Оплата услуги" style="ellipse;whiteSpace=wrap;html=1;" parent="PhnfL3Z2xuEmz42qnART-1" vertex="1">
          <mxGeometry x="470" y="505" width="120" height="80" as="geometry" />
        </mxCell>
        <mxCell id="DDrTPBUufZIqrLnreXwu-2" value="Кассир-диспетчер" style="shape=umlActor;verticalLabelPosition=bottom;verticalAlign=top;html=1;outlineConnect=0;" parent="PhnfL3Z2xuEmz42qnART-1" vertex="1">
          <mxGeometry x="675" y="540" width="30" height="60" as="geometry" />
        </mxCell>
        <mxCell id="jKX9IV1FnyYZ77-tCmcC-3" value="" style="endArrow=none;html=1;rounded=0;exitX=1;exitY=0;exitDx=0;exitDy=0;entryX=0;entryY=0.3333333333333333;entryDx=0;entryDy=0;entryPerimeter=0;" parent="PhnfL3Z2xuEmz42qnART-1" source="PhnfL3Z2xuEmz42qnART-3" target="PhnfL3Z2xuEmz42qnART-8" edge="1">
          <mxGeometry width="50" height="50" relative="1" as="geometry">
            <mxPoint x="209" y="360" as="sourcePoint" />
            <mxPoint x="389" y="220" as="targetPoint" />
          </mxGeometry>
        </mxCell>
        <mxCell id="jKX9IV1FnyYZ77-tCmcC-5" value="" style="endArrow=none;html=1;rounded=0;entryX=0;entryY=0.5;entryDx=0;entryDy=0;exitX=1;exitY=0.3333333333333333;exitDx=0;exitDy=0;exitPerimeter=0;" parent="PhnfL3Z2xuEmz42qnART-1" source="PhnfL3Z2xuEmz42qnART-6" target="PhnfL3Z2xuEmz42qnART-3" edge="1">
          <mxGeometry width="50" height="50" relative="1" as="geometry">
            <mxPoint x="160" y="500" as="sourcePoint" />
            <mxPoint x="186.57" y="408.28" as="targetPoint" />
            <Array as="points">
              <mxPoint x="150" y="340" />
            </Array>
          </mxGeometry>
        </mxCell>
        <mxCell id="jKX9IV1FnyYZ77-tCmcC-6" value="" style="endArrow=none;html=1;rounded=0;exitX=1;exitY=0.3333333333333333;exitDx=0;exitDy=0;entryX=0;entryY=0.5;entryDx=0;entryDy=0;exitPerimeter=0;" parent="PhnfL3Z2xuEmz42qnART-1" source="PhnfL3Z2xuEmz42qnART-6" target="PhnfL3Z2xuEmz42qnART-4" edge="1">
          <mxGeometry width="50" height="50" relative="1" as="geometry">
            <mxPoint x="109.99640687119273" y="499.99572875253807" as="sourcePoint" />
            <mxPoint x="186.57" y="408.28" as="targetPoint" />
          </mxGeometry>
        </mxCell>
        <mxCell id="jKX9IV1FnyYZ77-tCmcC-7" value="" style="endArrow=none;html=1;rounded=0;exitX=1;exitY=0.3333333333333333;exitDx=0;exitDy=0;entryX=0;entryY=0.5;entryDx=0;entryDy=0;exitPerimeter=0;" parent="PhnfL3Z2xuEmz42qnART-1" source="PhnfL3Z2xuEmz42qnART-6" target="PhnfL3Z2xuEmz42qnART-2" edge="1">
          <mxGeometry width="50" height="50" relative="1" as="geometry">
            <mxPoint x="109.99640687119268" y="609.9957287525381" as="sourcePoint" />
            <mxPoint x="210" y="570" as="targetPoint" />
          </mxGeometry>
        </mxCell>
        <mxCell id="jKX9IV1FnyYZ77-tCmcC-8" value="" style="endArrow=none;html=1;rounded=0;exitX=1;exitY=0.5;exitDx=0;exitDy=0;entryX=0;entryY=0.5;entryDx=0;entryDy=0;" parent="PhnfL3Z2xuEmz42qnART-1" source="PhnfL3Z2xuEmz42qnART-5" target="DDrTPBUufZIqrLnreXwu-1" edge="1">
          <mxGeometry width="50" height="50" relative="1" as="geometry">
            <mxPoint x="330" y="700" as="sourcePoint" />
            <mxPoint x="380" y="650" as="targetPoint" />
          </mxGeometry>
        </mxCell>
        <mxCell id="jKX9IV1FnyYZ77-tCmcC-10" value="" style="endArrow=none;html=1;rounded=0;exitX=1;exitY=0.3333333333333333;exitDx=0;exitDy=0;entryX=0;entryY=0.5;entryDx=0;entryDy=0;exitPerimeter=0;" parent="PhnfL3Z2xuEmz42qnART-1" source="PhnfL3Z2xuEmz42qnART-6" target="PhnfL3Z2xuEmz42qnART-5" edge="1">
          <mxGeometry width="50" height="50" relative="1" as="geometry">
            <mxPoint x="80" y="600" as="sourcePoint" />
            <mxPoint x="197.57359312880726" y="651.7157287525383" as="targetPoint" />
          </mxGeometry>
        </mxCell>
        <mxCell id="jKX9IV1FnyYZ77-tCmcC-12" value="" style="endArrow=none;html=1;rounded=0;exitX=1;exitY=0.5;exitDx=0;exitDy=0;entryX=0;entryY=0.5;entryDx=0;entryDy=0;" parent="PhnfL3Z2xuEmz42qnART-1" source="PhnfL3Z2xuEmz42qnART-2" target="DDrTPBUufZIqrLnreXwu-1" edge="1">
          <mxGeometry width="50" height="50" relative="1" as="geometry">
            <mxPoint x="345.21000000000004" y="590" as="sourcePoint" />
            <mxPoint x="462.7835931288073" y="641.7157287525383" as="targetPoint" />
          </mxGeometry>
        </mxCell>
        <mxCell id="jKX9IV1FnyYZ77-tCmcC-13" value="" style="endArrow=none;html=1;rounded=0;exitX=1;exitY=0.5;exitDx=0;exitDy=0;entryX=0;entryY=0.5;entryDx=0;entryDy=0;" parent="PhnfL3Z2xuEmz42qnART-1" source="PhnfL3Z2xuEmz42qnART-4" target="DDrTPBUufZIqrLnreXwu-1" edge="1">
          <mxGeometry width="50" height="50" relative="1" as="geometry">
            <mxPoint x="345" y="458.28" as="sourcePoint" />
            <mxPoint x="462.57359312880726" y="509.9957287525383" as="targetPoint" />
          </mxGeometry>
        </mxCell>
        <mxCell id="jKX9IV1FnyYZ77-tCmcC-15" value="" style="endArrow=none;html=1;rounded=0;exitX=1;exitY=0.5;exitDx=0;exitDy=0;entryX=0;entryY=0.5;entryDx=0;entryDy=0;" parent="PhnfL3Z2xuEmz42qnART-1" source="PhnfL3Z2xuEmz42qnART-3" target="DDrTPBUufZIqrLnreXwu-1" edge="1">
          <mxGeometry width="50" height="50" relative="1" as="geometry">
            <mxPoint x="432.43" y="448.28" as="sourcePoint" />
            <mxPoint x="550.0035931288073" y="499.9957287525383" as="targetPoint" />
            <Array as="points">
              <mxPoint x="390" y="370" />
            </Array>
          </mxGeometry>
        </mxCell>
        <mxCell id="jKX9IV1FnyYZ77-tCmcC-16" value="" style="endArrow=none;html=1;rounded=0;entryX=0;entryY=0;entryDx=0;entryDy=0;exitX=0;exitY=0.3333333333333333;exitDx=0;exitDy=0;exitPerimeter=0;" parent="PhnfL3Z2xuEmz42qnART-1" source="DDrTPBUufZIqrLnreXwu-0" target="PhnfL3Z2xuEmz42qnART-4" edge="1">
          <mxGeometry width="50" height="50" relative="1" as="geometry">
            <mxPoint x="310" y="340" as="sourcePoint" />
            <mxPoint x="377.57359312880726" y="381.7157287525383" as="targetPoint" />
            <Array as="points">
              <mxPoint x="240" y="360" />
            </Array>
          </mxGeometry>
        </mxCell>
        <mxCell id="jKX9IV1FnyYZ77-tCmcC-17" value="Проверка качества топлива" style="ellipse;whiteSpace=wrap;html=1;" parent="PhnfL3Z2xuEmz42qnART-1" vertex="1">
          <mxGeometry x="330" y="100" width="120" height="80" as="geometry" />
        </mxCell>
        <mxCell id="jKX9IV1FnyYZ77-tCmcC-20" value="" style="endArrow=none;html=1;rounded=0;exitX=0;exitY=0.3333333333333333;exitDx=0;exitDy=0;entryX=1;entryY=0.5;entryDx=0;entryDy=0;exitPerimeter=0;" parent="PhnfL3Z2xuEmz42qnART-1" source="DDrTPBUufZIqrLnreXwu-2" target="DDrTPBUufZIqrLnreXwu-1" edge="1">
          <mxGeometry width="50" height="50" relative="1" as="geometry">
            <mxPoint x="490" y="740" as="sourcePoint" />
            <mxPoint x="590" y="590" as="targetPoint" />
          </mxGeometry>
        </mxCell>
        <mxCell id="MvX3QRa-HRUC_aV6WvAl-1" value="Extend" style="html=1;verticalAlign=bottom;endArrow=open;dashed=1;endSize=8;rounded=0;entryX=0.5;entryY=0;entryDx=0;entryDy=0;exitX=0;exitY=1;exitDx=0;exitDy=0;" parent="PhnfL3Z2xuEmz42qnART-1" source="jKX9IV1FnyYZ77-tCmcC-17" target="PhnfL3Z2xuEmz42qnART-3" edge="1">
          <mxGeometry relative="1" as="geometry">
            <mxPoint x="290" y="130" as="sourcePoint" />
            <mxPoint x="379.14359312880725" y="156.56427124746187" as="targetPoint" />
          </mxGeometry>
        </mxCell>
        <mxCell id="MvX3QRa-HRUC_aV6WvAl-2" value="По карте" style="ellipse;whiteSpace=wrap;html=1;" parent="PhnfL3Z2xuEmz42qnART-1" vertex="1">
          <mxGeometry x="530" y="660" width="120" height="80" as="geometry" />
        </mxCell>
        <mxCell id="MvX3QRa-HRUC_aV6WvAl-3" value="Наличными" style="ellipse;whiteSpace=wrap;html=1;" parent="PhnfL3Z2xuEmz42qnART-1" vertex="1">
          <mxGeometry x="400" y="660" width="120" height="80" as="geometry" />
        </mxCell>
        <mxCell id="MvX3QRa-HRUC_aV6WvAl-5" value="" style="endArrow=open;startArrow=circlePlus;endFill=0;startFill=0;endSize=8;html=1;rounded=0;entryX=1;entryY=1;entryDx=0;entryDy=0;" parent="PhnfL3Z2xuEmz42qnART-1" source="MvX3QRa-HRUC_aV6WvAl-2" target="DDrTPBUufZIqrLnreXwu-1" edge="1">
          <mxGeometry width="160" relative="1" as="geometry">
            <mxPoint x="470" y="630" as="sourcePoint" />
            <mxPoint x="630" y="630" as="targetPoint" />
          </mxGeometry>
        </mxCell>
        <mxCell id="MvX3QRa-HRUC_aV6WvAl-6" value="" style="endArrow=open;startArrow=circlePlus;endFill=0;startFill=0;endSize=8;html=1;rounded=0;exitX=0.5;exitY=0;exitDx=0;exitDy=0;entryX=0;entryY=1;entryDx=0;entryDy=0;" parent="PhnfL3Z2xuEmz42qnART-1" source="MvX3QRa-HRUC_aV6WvAl-3" target="DDrTPBUufZIqrLnreXwu-1" edge="1">
          <mxGeometry width="160" relative="1" as="geometry">
            <mxPoint x="460" y="620" as="sourcePoint" />
            <mxPoint x="500" y="650" as="targetPoint" />
          </mxGeometry>
        </mxCell>
      </root>
    </mxGraphModel>
  </diagram>
  <diagram id="srZwIxSrhL6Wa5Qu5Joo" name="Классы">
    <mxGraphModel dx="933" dy="1045" grid="1" gridSize="10" guides="1" tooltips="1" connect="1" arrows="1" fold="1" page="1" pageScale="1" pageWidth="827" pageHeight="1169" math="0" shadow="0">
      <root>
        <mxCell id="nufCYucuqVAj_i4_ovP5-0" />
        <mxCell id="nufCYucuqVAj_i4_ovP5-1" parent="nufCYucuqVAj_i4_ovP5-0" />
        <mxCell id="A3pN1My9e52vsb6XgynY-0" value="Ассортимент&lt;br&gt;Заправки" style="ellipse;shape=umlEntity;whiteSpace=wrap;html=1;" parent="nufCYucuqVAj_i4_ovP5-1" vertex="1">
          <mxGeometry x="260" y="90" width="80" height="80" as="geometry" />
        </mxCell>
        <mxCell id="A3pN1My9e52vsb6XgynY-1" value="Топливо" style="ellipse;shape=umlEntity;whiteSpace=wrap;html=1;" parent="nufCYucuqVAj_i4_ovP5-1" vertex="1">
          <mxGeometry x="80" y="100" width="80" height="80" as="geometry" />
        </mxCell>
        <mxCell id="A3pN1My9e52vsb6XgynY-2" value="Товары для машины" style="ellipse;shape=umlEntity;whiteSpace=wrap;html=1;" parent="nufCYucuqVAj_i4_ovP5-1" vertex="1">
          <mxGeometry x="160" y="220" width="80" height="80" as="geometry" />
        </mxCell>
        <mxCell id="A3pN1My9e52vsb6XgynY-3" value="Товары для человека" style="ellipse;shape=umlEntity;whiteSpace=wrap;html=1;" parent="nufCYucuqVAj_i4_ovP5-1" vertex="1">
          <mxGeometry x="370" y="220" width="80" height="80" as="geometry" />
        </mxCell>
        <mxCell id="A3pN1My9e52vsb6XgynY-4" value="Фаст-фуд" style="ellipse;shape=umlEntity;whiteSpace=wrap;html=1;" parent="nufCYucuqVAj_i4_ovP5-1" vertex="1">
          <mxGeometry x="464" y="120" width="80" height="80" as="geometry" />
        </mxCell>
        <mxCell id="A3pN1My9e52vsb6XgynY-5" value="" style="endArrow=diamondThin;endFill=1;endSize=24;html=1;rounded=0;exitX=1;exitY=0.375;exitDx=0;exitDy=0;entryX=0;entryY=0;entryDx=0;entryDy=0;exitPerimeter=0;" parent="nufCYucuqVAj_i4_ovP5-1" source="A3pN1My9e52vsb6XgynY-1" target="A3pN1My9e52vsb6XgynY-0" edge="1">
          <mxGeometry width="160" relative="1" as="geometry">
            <mxPoint x="170" y="200" as="sourcePoint" />
            <mxPoint x="330" y="200" as="targetPoint" />
          </mxGeometry>
        </mxCell>
        <mxCell id="A3pN1My9e52vsb6XgynY-6" value="" style="endArrow=diamondThin;endFill=1;endSize=24;html=1;rounded=0;exitX=0.5;exitY=0;exitDx=0;exitDy=0;entryX=0;entryY=0.5;entryDx=0;entryDy=0;" parent="nufCYucuqVAj_i4_ovP5-1" source="A3pN1My9e52vsb6XgynY-2" target="A3pN1My9e52vsb6XgynY-0" edge="1">
          <mxGeometry width="160" relative="1" as="geometry">
            <mxPoint x="180" y="210" as="sourcePoint" />
            <mxPoint x="340" y="210" as="targetPoint" />
          </mxGeometry>
        </mxCell>
        <mxCell id="A3pN1My9e52vsb6XgynY-7" value="" style="endArrow=diamondThin;endFill=1;endSize=24;html=1;rounded=0;exitX=0.5;exitY=0;exitDx=0;exitDy=0;entryX=1;entryY=0.5;entryDx=0;entryDy=0;" parent="nufCYucuqVAj_i4_ovP5-1" source="A3pN1My9e52vsb6XgynY-3" target="A3pN1My9e52vsb6XgynY-0" edge="1">
          <mxGeometry width="160" relative="1" as="geometry">
            <mxPoint x="190" y="220" as="sourcePoint" />
            <mxPoint x="350" y="220" as="targetPoint" />
          </mxGeometry>
        </mxCell>
        <mxCell id="A3pN1My9e52vsb6XgynY-8" value="" style="endArrow=diamondThin;endFill=1;endSize=24;html=1;rounded=0;exitX=0;exitY=0;exitDx=0;exitDy=0;entryX=1;entryY=0;entryDx=0;entryDy=0;" parent="nufCYucuqVAj_i4_ovP5-1" source="A3pN1My9e52vsb6XgynY-4" target="A3pN1My9e52vsb6XgynY-0" edge="1">
          <mxGeometry width="160" relative="1" as="geometry">
            <mxPoint x="200" y="230" as="sourcePoint" />
            <mxPoint x="360" y="230" as="targetPoint" />
          </mxGeometry>
        </mxCell>
        <mxCell id="A3pN1My9e52vsb6XgynY-9" value="Отчёт по продажам в БД" style="ellipse;shape=umlEntity;whiteSpace=wrap;html=1;" parent="nufCYucuqVAj_i4_ovP5-1" vertex="1">
          <mxGeometry x="50" y="530" width="80" height="80" as="geometry" />
        </mxCell>
        <mxCell id="A3pN1My9e52vsb6XgynY-16" value="Карта заправок" style="ellipse;shape=umlEntity;whiteSpace=wrap;html=1;" parent="nufCYucuqVAj_i4_ovP5-1" vertex="1">
          <mxGeometry x="1210" y="330" width="80" height="80" as="geometry" />
        </mxCell>
        <mxCell id="A3pN1My9e52vsb6XgynY-17" value="Вид топлива" style="ellipse;shape=umlEntity;whiteSpace=wrap;html=1;" parent="nufCYucuqVAj_i4_ovP5-1" vertex="1">
          <mxGeometry x="344" y="380" width="80" height="80" as="geometry" />
        </mxCell>
        <mxCell id="A3pN1My9e52vsb6XgynY-18" value="Кол-во топлива" style="ellipse;shape=umlEntity;whiteSpace=wrap;html=1;" parent="nufCYucuqVAj_i4_ovP5-1" vertex="1">
          <mxGeometry x="350" y="470" width="80" height="80" as="geometry" />
        </mxCell>
        <mxCell id="PmpmkZPDHUPsztQy5bpn-3" value="" style="edgeStyle=orthogonalEdgeStyle;rounded=0;orthogonalLoop=1;jettySize=auto;html=1;" edge="1" parent="nufCYucuqVAj_i4_ovP5-1" source="A3pN1My9e52vsb6XgynY-22" target="A3pN1My9e52vsb6XgynY-0">
          <mxGeometry relative="1" as="geometry" />
        </mxCell>
        <mxCell id="A3pN1My9e52vsb6XgynY-22" value="Ремонтные услуги" style="ellipse;shape=umlEntity;whiteSpace=wrap;html=1;" parent="nufCYucuqVAj_i4_ovP5-1" vertex="1">
          <mxGeometry x="260" y="250" width="80" height="80" as="geometry" />
        </mxCell>
        <mxCell id="A3pN1My9e52vsb6XgynY-23" value="" style="endArrow=diamondThin;endFill=1;endSize=24;html=1;rounded=0;exitX=0.5;exitY=0;exitDx=0;exitDy=0;entryX=0.5;entryY=1;entryDx=0;entryDy=0;" parent="nufCYucuqVAj_i4_ovP5-1" source="A3pN1My9e52vsb6XgynY-22" target="A3pN1My9e52vsb6XgynY-0" edge="1">
          <mxGeometry width="160" relative="1" as="geometry">
            <mxPoint x="419.9999999999998" y="229.99999999999977" as="sourcePoint" />
            <mxPoint x="349.9999999999998" y="140" as="targetPoint" />
          </mxGeometry>
        </mxCell>
        <mxCell id="Tg5ebynUK-KR9g23zl01-0" value="Диалоговое окно для работы с БД" style="shape=umlBoundary;whiteSpace=wrap;html=1;" vertex="1" parent="nufCYucuqVAj_i4_ovP5-1">
          <mxGeometry x="1060" y="410" width="100" height="80" as="geometry" />
        </mxCell>
        <mxCell id="PmpmkZPDHUPsztQy5bpn-0" value="БД" style="text;html=1;align=center;verticalAlign=middle;resizable=0;points=[];autosize=1;strokeColor=none;fillColor=none;" vertex="1" parent="nufCYucuqVAj_i4_ovP5-1">
          <mxGeometry x="75" y="30" width="30" height="20" as="geometry" />
        </mxCell>
        <mxCell id="PmpmkZPDHUPsztQy5bpn-1" value="Продажи товаров" style="ellipse;shape=umlEntity;whiteSpace=wrap;html=1;" vertex="1" parent="nufCYucuqVAj_i4_ovP5-1">
          <mxGeometry x="190" y="590" width="80" height="80" as="geometry" />
        </mxCell>
        <mxCell id="PmpmkZPDHUPsztQy5bpn-2" value="Оказание ремонтных услуг" style="ellipse;shape=umlEntity;whiteSpace=wrap;html=1;" vertex="1" parent="nufCYucuqVAj_i4_ovP5-1">
          <mxGeometry x="180" y="730" width="80" height="80" as="geometry" />
        </mxCell>
        <mxCell id="PmpmkZPDHUPsztQy5bpn-4" value="" style="endArrow=diamondThin;endFill=1;endSize=24;html=1;rounded=0;exitX=0;exitY=0.5;exitDx=0;exitDy=0;entryX=1;entryY=0.5;entryDx=0;entryDy=0;" edge="1" parent="nufCYucuqVAj_i4_ovP5-1" source="PmpmkZPDHUPsztQy5bpn-1" target="A3pN1My9e52vsb6XgynY-9">
          <mxGeometry width="160" relative="1" as="geometry">
            <mxPoint x="320" y="145.99999999999977" as="sourcePoint" />
            <mxPoint x="320" y="66" as="targetPoint" />
          </mxGeometry>
        </mxCell>
        <mxCell id="PmpmkZPDHUPsztQy5bpn-5" value="" style="endArrow=diamondThin;endFill=1;endSize=24;html=1;rounded=0;exitX=0;exitY=0;exitDx=0;exitDy=0;entryX=1;entryY=1;entryDx=0;entryDy=0;" edge="1" parent="nufCYucuqVAj_i4_ovP5-1" source="PmpmkZPDHUPsztQy5bpn-2" target="A3pN1My9e52vsb6XgynY-9">
          <mxGeometry width="160" relative="1" as="geometry">
            <mxPoint x="199.99999999999852" y="500" as="sourcePoint" />
            <mxPoint x="128.2842712474619" y="551.7157287525381" as="targetPoint" />
          </mxGeometry>
        </mxCell>
        <mxCell id="PmpmkZPDHUPsztQy5bpn-6" value="Продажа топлива" style="ellipse;shape=umlEntity;whiteSpace=wrap;html=1;" vertex="1" parent="nufCYucuqVAj_i4_ovP5-1">
          <mxGeometry x="200" y="480" width="80" height="80" as="geometry" />
        </mxCell>
        <mxCell id="PmpmkZPDHUPsztQy5bpn-7" value="" style="endArrow=diamondThin;endFill=1;endSize=24;html=1;rounded=0;exitX=0;exitY=0.5;exitDx=0;exitDy=0;entryX=1;entryY=0;entryDx=0;entryDy=0;" edge="1" parent="nufCYucuqVAj_i4_ovP5-1" source="PmpmkZPDHUPsztQy5bpn-6" target="A3pN1My9e52vsb6XgynY-9">
          <mxGeometry width="160" relative="1" as="geometry">
            <mxPoint x="220.00000000000318" y="640" as="sourcePoint" />
            <mxPoint x="140.0000000000016" y="580" as="targetPoint" />
          </mxGeometry>
        </mxCell>
        <mxCell id="AjpEjDXIWg9wmpaibGSI-0" value="" style="endArrow=diamondThin;endFill=1;endSize=24;html=1;rounded=0;exitX=0;exitY=0.5;exitDx=0;exitDy=0;entryX=1;entryY=0;entryDx=0;entryDy=0;" edge="1" parent="nufCYucuqVAj_i4_ovP5-1" source="A3pN1My9e52vsb6XgynY-17" target="PmpmkZPDHUPsztQy5bpn-6">
          <mxGeometry width="160" relative="1" as="geometry">
            <mxPoint x="239.99999999999977" y="520" as="sourcePoint" />
            <mxPoint x="128.28427124746418" y="551.7157287525358" as="targetPoint" />
          </mxGeometry>
        </mxCell>
        <mxCell id="AjpEjDXIWg9wmpaibGSI-1" value="" style="endArrow=diamondThin;endFill=1;endSize=24;html=1;rounded=0;exitX=0;exitY=0.5;exitDx=0;exitDy=0;entryX=1;entryY=0.5;entryDx=0;entryDy=0;" edge="1" parent="nufCYucuqVAj_i4_ovP5-1" source="A3pN1My9e52vsb6XgynY-18" target="PmpmkZPDHUPsztQy5bpn-6">
          <mxGeometry width="160" relative="1" as="geometry">
            <mxPoint x="354" y="430" as="sourcePoint" />
            <mxPoint x="308.2842712474619" y="491.71572875253787" as="targetPoint" />
          </mxGeometry>
        </mxCell>
        <mxCell id="AjpEjDXIWg9wmpaibGSI-2" value="Нормы по продажам" style="ellipse;shape=umlEntity;whiteSpace=wrap;html=1;" vertex="1" parent="nufCYucuqVAj_i4_ovP5-1">
          <mxGeometry x="344" y="610" width="80" height="80" as="geometry" />
        </mxCell>
        <mxCell id="AjpEjDXIWg9wmpaibGSI-3" value="" style="endArrow=diamondThin;endFill=1;endSize=24;html=1;rounded=0;exitX=0;exitY=0.5;exitDx=0;exitDy=0;entryX=1;entryY=0.5;entryDx=0;entryDy=0;" edge="1" parent="nufCYucuqVAj_i4_ovP5-1" source="AjpEjDXIWg9wmpaibGSI-2" target="PmpmkZPDHUPsztQy5bpn-1">
          <mxGeometry width="160" relative="1" as="geometry">
            <mxPoint x="360.0000000000002" y="520" as="sourcePoint" />
            <mxPoint x="319.9999999999998" y="520" as="targetPoint" />
          </mxGeometry>
        </mxCell>
        <mxCell id="AjpEjDXIWg9wmpaibGSI-4" value="" style="endArrow=diamondThin;endFill=1;endSize=24;html=1;rounded=0;exitX=0;exitY=0;exitDx=0;exitDy=0;entryX=1;entryY=1;entryDx=0;entryDy=0;" edge="1" parent="nufCYucuqVAj_i4_ovP5-1" source="AjpEjDXIWg9wmpaibGSI-2" target="PmpmkZPDHUPsztQy5bpn-6">
          <mxGeometry width="160" relative="1" as="geometry">
            <mxPoint x="370.0000000000002" y="530" as="sourcePoint" />
            <mxPoint x="329.9999999999998" y="530" as="targetPoint" />
          </mxGeometry>
        </mxCell>
        <mxCell id="AjpEjDXIWg9wmpaibGSI-5" value="Клиентское ПО&lt;br&gt;(Приложение заправки)" style="text;html=1;align=center;verticalAlign=middle;resizable=0;points=[];autosize=1;strokeColor=none;fillColor=none;" vertex="1" parent="nufCYucuqVAj_i4_ovP5-1">
          <mxGeometry x="870" y="40" width="150" height="30" as="geometry" />
        </mxCell>
        <mxCell id="AjpEjDXIWg9wmpaibGSI-6" value="Диалоговое окно &quot;Профиль работника&quot;" style="shape=umlBoundary;whiteSpace=wrap;html=1;" vertex="1" parent="nufCYucuqVAj_i4_ovP5-1">
          <mxGeometry x="870" y="400" width="100" height="80" as="geometry" />
        </mxCell>
        <mxCell id="AjpEjDXIWg9wmpaibGSI-7" value="Диалоговое окно &quot;Тех. поддержка&quot;" style="shape=umlBoundary;whiteSpace=wrap;html=1;" vertex="1" parent="nufCYucuqVAj_i4_ovP5-1">
          <mxGeometry x="922.5" y="600" width="100" height="80" as="geometry" />
        </mxCell>
        <mxCell id="AjpEjDXIWg9wmpaibGSI-13" value="" style="endArrow=open;endFill=1;endSize=12;html=1;rounded=0;entryX=0;entryY=0.5;entryDx=0;entryDy=0;exitX=0.842;exitY=0.071;exitDx=0;exitDy=0;exitPerimeter=0;" edge="1" parent="nufCYucuqVAj_i4_ovP5-1" source="Tg5ebynUK-KR9g23zl01-0" target="A3pN1My9e52vsb6XgynY-16">
          <mxGeometry width="160" relative="1" as="geometry">
            <mxPoint x="960" y="540" as="sourcePoint" />
            <mxPoint x="1120" y="540" as="targetPoint" />
          </mxGeometry>
        </mxCell>
        <mxCell id="AjpEjDXIWg9wmpaibGSI-16" value="Диалоговое окно &quot;Оплата покупок&quot;" style="shape=umlBoundary;whiteSpace=wrap;html=1;" vertex="1" parent="nufCYucuqVAj_i4_ovP5-1">
          <mxGeometry x="1190" y="490" width="100" height="80" as="geometry" />
        </mxCell>
        <mxCell id="AjpEjDXIWg9wmpaibGSI-17" value="" style="endArrow=block;endSize=16;endFill=0;html=1;rounded=0;entryX=0.372;entryY=0.938;entryDx=0;entryDy=0;entryPerimeter=0;exitX=0.995;exitY=0.247;exitDx=0;exitDy=0;exitPerimeter=0;" edge="1" parent="nufCYucuqVAj_i4_ovP5-1" source="AjpEjDXIWg9wmpaibGSI-7" target="Tg5ebynUK-KR9g23zl01-0">
          <mxGeometry x="-0.0669" y="110" width="160" relative="1" as="geometry">
            <mxPoint x="1320" y="720" as="sourcePoint" />
            <mxPoint x="1150" y="410" as="targetPoint" />
            <mxPoint x="1" as="offset" />
          </mxGeometry>
        </mxCell>
        <mxCell id="AjpEjDXIWg9wmpaibGSI-18" value="" style="endArrow=block;endSize=16;endFill=0;html=1;rounded=0;exitX=0.989;exitY=0.416;exitDx=0;exitDy=0;exitPerimeter=0;entryX=0.007;entryY=0.379;entryDx=0;entryDy=0;entryPerimeter=0;" edge="1" parent="nufCYucuqVAj_i4_ovP5-1" source="AjpEjDXIWg9wmpaibGSI-6" target="Tg5ebynUK-KR9g23zl01-0">
          <mxGeometry x="-0.0669" y="110" width="160" relative="1" as="geometry">
            <mxPoint x="1330" y="730" as="sourcePoint" />
            <mxPoint x="1130" y="510" as="targetPoint" />
            <mxPoint x="1" as="offset" />
          </mxGeometry>
        </mxCell>
        <mxCell id="AjpEjDXIWg9wmpaibGSI-19" value="Оплата" style="shape=umlBoundary;whiteSpace=wrap;html=1;" vertex="1" parent="nufCYucuqVAj_i4_ovP5-1">
          <mxGeometry x="1030" y="970" width="100" height="80" as="geometry" />
        </mxCell>
        <mxCell id="AjpEjDXIWg9wmpaibGSI-20" value="Клиент" style="shape=umlActor;verticalLabelPosition=bottom;verticalAlign=top;html=1;" vertex="1" parent="nufCYucuqVAj_i4_ovP5-1">
          <mxGeometry x="850" y="980" width="30" height="60" as="geometry" />
        </mxCell>
        <mxCell id="AjpEjDXIWg9wmpaibGSI-23" value="Диалоговое окно &quot;История покупок&quot;" style="shape=umlBoundary;whiteSpace=wrap;html=1;" vertex="1" parent="nufCYucuqVAj_i4_ovP5-1">
          <mxGeometry x="880" y="504.5" width="100" height="80" as="geometry" />
        </mxCell>
        <mxCell id="AjpEjDXIWg9wmpaibGSI-24" value="" style="endArrow=block;endSize=16;endFill=0;html=1;rounded=0;entryX=0.266;entryY=0.835;entryDx=0;entryDy=0;entryPerimeter=0;exitX=0.975;exitY=0.365;exitDx=0;exitDy=0;exitPerimeter=0;" edge="1" parent="nufCYucuqVAj_i4_ovP5-1" source="AjpEjDXIWg9wmpaibGSI-23" target="Tg5ebynUK-KR9g23zl01-0">
          <mxGeometry x="-0.0669" y="110" width="160" relative="1" as="geometry">
            <mxPoint x="1129.5" y="619.7600000000002" as="sourcePoint" />
            <mxPoint x="1107.1999999999998" y="495.0400000000002" as="targetPoint" />
            <mxPoint x="1" as="offset" />
          </mxGeometry>
        </mxCell>
        <mxCell id="AjpEjDXIWg9wmpaibGSI-25" value="Запись данных о покупке" style="ellipse;shape=umlEntity;whiteSpace=wrap;html=1;" vertex="1" parent="nufCYucuqVAj_i4_ovP5-1">
          <mxGeometry x="932.5" y="1180" width="80" height="80" as="geometry" />
        </mxCell>
        <mxCell id="AjpEjDXIWg9wmpaibGSI-26" value="Обозначение определённой колонки" style="ellipse;shape=umlEntity;whiteSpace=wrap;html=1;" vertex="1" parent="nufCYucuqVAj_i4_ovP5-1">
          <mxGeometry x="1037.5" y="1180" width="80" height="80" as="geometry" />
        </mxCell>
        <mxCell id="AjpEjDXIWg9wmpaibGSI-27" value="Соединение с БД" style="ellipse;shape=umlControl;whiteSpace=wrap;html=1;" vertex="1" parent="nufCYucuqVAj_i4_ovP5-1">
          <mxGeometry x="1350" y="730" width="70" height="80" as="geometry" />
        </mxCell>
        <mxCell id="AjpEjDXIWg9wmpaibGSI-28" value="Определение типа топлива" style="ellipse;shape=umlEntity;whiteSpace=wrap;html=1;" vertex="1" parent="nufCYucuqVAj_i4_ovP5-1">
          <mxGeometry x="1147.5" y="1180" width="80" height="80" as="geometry" />
        </mxCell>
        <mxCell id="AjpEjDXIWg9wmpaibGSI-29" value="Проход платежа" style="ellipse;shape=umlControl;whiteSpace=wrap;html=1;" vertex="1" parent="nufCYucuqVAj_i4_ovP5-1">
          <mxGeometry x="1230" y="970" width="70" height="80" as="geometry" />
        </mxCell>
        <mxCell id="AjpEjDXIWg9wmpaibGSI-30" value="Соединение с банком" style="ellipse;shape=umlControl;whiteSpace=wrap;html=1;" vertex="1" parent="nufCYucuqVAj_i4_ovP5-1">
          <mxGeometry x="1380" y="900" width="70" height="80" as="geometry" />
        </mxCell>
        <mxCell id="AjpEjDXIWg9wmpaibGSI-32" value="" style="endArrow=block;endSize=16;endFill=0;html=1;rounded=0;exitX=0.366;exitY=0.1;exitDx=0;exitDy=0;exitPerimeter=0;" edge="1" parent="nufCYucuqVAj_i4_ovP5-1" source="AjpEjDXIWg9wmpaibGSI-16">
          <mxGeometry x="-0.0669" y="110" width="160" relative="1" as="geometry">
            <mxPoint x="978.8999999999999" y="423.2800000000002" as="sourcePoint" />
            <mxPoint x="1140" y="480" as="targetPoint" />
            <mxPoint x="1" as="offset" />
          </mxGeometry>
        </mxCell>
        <mxCell id="AjpEjDXIWg9wmpaibGSI-37" value="Карта заправок" style="ellipse;shape=umlEntity;whiteSpace=wrap;html=1;" vertex="1" parent="nufCYucuqVAj_i4_ovP5-1">
          <mxGeometry x="1210" y="610" width="80" height="80" as="geometry" />
        </mxCell>
        <mxCell id="AjpEjDXIWg9wmpaibGSI-39" value="" style="endArrow=block;dashed=1;endFill=0;endSize=12;html=1;rounded=0;entryX=0.167;entryY=0.896;entryDx=0;entryDy=0;entryPerimeter=0;exitX=0.795;exitY=0.213;exitDx=0;exitDy=0;exitPerimeter=0;" edge="1" parent="nufCYucuqVAj_i4_ovP5-1" source="AjpEjDXIWg9wmpaibGSI-29" target="AjpEjDXIWg9wmpaibGSI-27">
          <mxGeometry width="160" relative="1" as="geometry">
            <mxPoint x="1020" y="780" as="sourcePoint" />
            <mxPoint x="1180" y="780" as="targetPoint" />
          </mxGeometry>
        </mxCell>
        <mxCell id="AjpEjDXIWg9wmpaibGSI-40" value="" style="endArrow=block;dashed=1;endFill=0;endSize=12;html=1;rounded=0;" edge="1" parent="nufCYucuqVAj_i4_ovP5-1" target="AjpEjDXIWg9wmpaibGSI-30">
          <mxGeometry width="160" relative="1" as="geometry">
            <mxPoint x="1296" y="997" as="sourcePoint" />
            <mxPoint x="1371.69" y="811.6800000000001" as="targetPoint" />
          </mxGeometry>
        </mxCell>
        <mxCell id="AjpEjDXIWg9wmpaibGSI-41" value="Кассир" style="shape=umlActor;verticalLabelPosition=bottom;verticalAlign=top;html=1;" vertex="1" parent="nufCYucuqVAj_i4_ovP5-1">
          <mxGeometry x="850" y="1090" width="30" height="60" as="geometry" />
        </mxCell>
        <mxCell id="AjpEjDXIWg9wmpaibGSI-42" value="" style="endArrow=diamondThin;endFill=1;endSize=24;html=1;rounded=0;exitX=1;exitY=0.3333333333333333;exitDx=0;exitDy=0;exitPerimeter=0;" edge="1" parent="nufCYucuqVAj_i4_ovP5-1" source="AjpEjDXIWg9wmpaibGSI-20" target="AjpEjDXIWg9wmpaibGSI-19">
          <mxGeometry width="160" relative="1" as="geometry">
            <mxPoint x="1020" y="1060" as="sourcePoint" />
            <mxPoint x="1180" y="1060" as="targetPoint" />
          </mxGeometry>
        </mxCell>
        <mxCell id="AjpEjDXIWg9wmpaibGSI-43" value="" style="endArrow=diamondThin;endFill=1;endSize=24;html=1;rounded=0;exitX=1;exitY=0.3333333333333333;exitDx=0;exitDy=0;exitPerimeter=0;entryX=0.303;entryY=0.846;entryDx=0;entryDy=0;entryPerimeter=0;" edge="1" parent="nufCYucuqVAj_i4_ovP5-1" source="AjpEjDXIWg9wmpaibGSI-41" target="AjpEjDXIWg9wmpaibGSI-19">
          <mxGeometry width="160" relative="1" as="geometry">
            <mxPoint x="890" y="1010" as="sourcePoint" />
            <mxPoint x="1040" y="1017.5" as="targetPoint" />
          </mxGeometry>
        </mxCell>
        <mxCell id="AjpEjDXIWg9wmpaibGSI-44" value="" style="endArrow=diamondThin;endFill=1;endSize=24;html=1;rounded=0;exitX=0.5;exitY=0;exitDx=0;exitDy=0;" edge="1" parent="nufCYucuqVAj_i4_ovP5-1" source="AjpEjDXIWg9wmpaibGSI-25">
          <mxGeometry width="160" relative="1" as="geometry">
            <mxPoint x="900" y="1020" as="sourcePoint" />
            <mxPoint x="1080" y="1048" as="targetPoint" />
          </mxGeometry>
        </mxCell>
        <mxCell id="AjpEjDXIWg9wmpaibGSI-46" value="" style="endArrow=diamondThin;endFill=1;endSize=24;html=1;rounded=0;exitX=0.5;exitY=0;exitDx=0;exitDy=0;" edge="1" parent="nufCYucuqVAj_i4_ovP5-1" source="AjpEjDXIWg9wmpaibGSI-26">
          <mxGeometry width="160" relative="1" as="geometry">
            <mxPoint x="982.5" y="1190" as="sourcePoint" />
            <mxPoint x="1090" y="1058" as="targetPoint" />
          </mxGeometry>
        </mxCell>
        <mxCell id="AjpEjDXIWg9wmpaibGSI-47" value="" style="endArrow=diamondThin;endFill=1;endSize=24;html=1;rounded=0;exitX=0.5;exitY=0;exitDx=0;exitDy=0;entryX=0.863;entryY=0.913;entryDx=0;entryDy=0;entryPerimeter=0;" edge="1" parent="nufCYucuqVAj_i4_ovP5-1" source="AjpEjDXIWg9wmpaibGSI-28" target="AjpEjDXIWg9wmpaibGSI-19">
          <mxGeometry width="160" relative="1" as="geometry">
            <mxPoint x="992.5" y="1200" as="sourcePoint" />
            <mxPoint x="1100" y="1068" as="targetPoint" />
          </mxGeometry>
        </mxCell>
        <mxCell id="AjpEjDXIWg9wmpaibGSI-48" value="" style="endArrow=diamondThin;endFill=0;endSize=24;html=1;rounded=0;exitX=1.05;exitY=0.546;exitDx=0;exitDy=0;exitPerimeter=0;entryX=-0.005;entryY=0.479;entryDx=0;entryDy=0;entryPerimeter=0;" edge="1" parent="nufCYucuqVAj_i4_ovP5-1" source="AjpEjDXIWg9wmpaibGSI-19" target="AjpEjDXIWg9wmpaibGSI-29">
          <mxGeometry width="160" relative="1" as="geometry">
            <mxPoint x="1020" y="1060" as="sourcePoint" />
            <mxPoint x="1180" y="1060" as="targetPoint" />
          </mxGeometry>
        </mxCell>
      </root>
    </mxGraphModel>
  </diagram>
</mxfile>
